<svg xmlns="http://www.w3.org/2000/svg" id="interior-drive-info" width="230" height="230" version="1" viewBox="0 0 280 280">
	<circle class="circle" cx="140" cy="140" r="121" fill="#D6D6D6" stroke="#F1F1F1" stroke-width="1.65" stroke-miterlimit="10" />
		<path d="M111.846 217.625v-8.778h8.582c.372 0 .69.185.947.55.247.35.372.783.372 1.286v1.67c0 .496-.125.926-.372 1.28-.256.37-.575.557-.947.557h-6.662v3.435h-1.92zm8.132-5.343c.115-.1.132-.16.132-.24v-1.046c0-.08-.017-.145-.052-.198l-6.292-.055v1.538h6.212z"></path>
		<path d="M120.428 208.972c.33 0 .612.166.845.496.233.33.35.736.35 1.214v1.672c0 .47-.117.873-.35 1.208-.233.335-.514.503-.845.503h-6.787v3.435h-1.67v-8.528h8.458m-6.787 3.435h6.338c.073 0 .135-.035.184-.104s.073-.157.073-.26v-1.046c0-.104-.024-.194-.073-.267-.05-.074-.11-.11-.184-.11h-6.337v1.787m6.788-3.685h-8.707v9.028h2.17v-3.435h6.538c.416 0 .77-.205 1.05-.61.26-.375.394-.83.394-1.35v-1.672c0-.53-.133-.986-.395-1.358-.28-.4-.634-.603-1.05-.603zm-6.537 2.146h6.088c-.003.03.007.074.007.128v1.045c0 .053-.01.092-.028.12l-6.066-.003v-1.29z"></path>
	</g>
		<path d="M135.347 217.625v-.726c0-1.824-.536-2.71-1.638-2.71h-4.753v3.435h-1.637v-8.778h8.216c.378 0 .7.185.956.55.247.35.372.783.372 1.286v1.67c0 .343-.075.653-.222.923-.12.218-.267.387-.44.505.253.297.445.677.57 1.133.14.51.21 1.117.21 1.803v.908h-1.635zm-.26-5.343c.027 0 .058-.006.09-.05.033-.048.05-.112.05-.19v-1.045c0-.08-.018-.146-.052-.198-.033-.05-.062-.056-.09-.056h-6.128v1.54h6.13z"></path>
		<path d="M135.536 208.972c.337 0 .62.166.854.496.233.33.35.736.35 1.214v1.672c0 .322-.07.61-.208.862-.138.252-.314.43-.528.535.294.297.51.696.647 1.196.14.5.208 1.09.208 1.77v.783h-1.387v-.602c0-1.89-.587-2.834-1.762-2.834h-4.877v3.435h-1.386v-8.53h8.092m-6.704 3.437h6.254c.08 0 .143-.035.193-.104.048-.07.072-.157.072-.26v-1.046c0-.104-.025-.194-.073-.267-.05-.074-.114-.11-.194-.11h-6.254v1.787m6.704-3.685h-8.34v9.028h1.886v-3.435h4.627c.373 0 1.512 0 1.512 2.584v.85h1.887v-1.033c0-.698-.074-1.316-.217-1.836-.116-.422-.288-.783-.513-1.077.144-.12.268-.277.372-.467.158-.288.237-.62.237-.982v-1.672c0-.53-.134-.986-.396-1.358-.28-.4-.637-.602-1.058-.602zm-6.454 2.146h6.004c.006.03.016.074.016.128v1.045c0 .053-.01.092-.028.12l-5.992-.003v-1.29z"></path>
	</g>
		<polygon points="151.13,217.625 144.661,211.395 144.661,217.625 143.024,217.625 143.024,208.847 144.536,208.847 151.005,215.077 151.005,208.847 152.642,208.847 152.642,217.625"></polygon>
		<path d="M152.517 208.972v8.528h-1.387l-6.594-6.4v6.4h-1.387v-8.528h1.386l6.594 6.4v-6.4h1.387m.25-.25h-1.887v6.058l-6.17-5.987-.073-.07H142.9v9.027h1.886v-6.058l6.17 5.987.073.07h1.737v-9.028z"></path>
	</g>
		<path d="M158.537 217.625v-8.778h8.3c.364 0 .68.18.94.535.25.342.377.758.377 1.236v5.17c0 .504-.125.937-.372 1.287-.256.365-.574.55-.946.55h-8.3zm7.848-1.908c.115-.1.132-.163.132-.24v-4.48c0-.08-.018-.147-.052-.2l-6.292-.053v4.973h6.212z"></path>
		<path d="M166.835 208.972c.324 0 .604.16.84.483.236.322.354.71.354 1.162v5.17c0 .48-.117.885-.35 1.215-.233.33-.514.496-.845.496h-8.174v-8.528h8.175m-6.787 6.872h6.337c.073 0 .135-.035.184-.105.048-.07.072-.157.072-.26v-4.48c0-.105-.024-.195-.073-.268-.05-.075-.11-.112-.185-.112h-6.337v5.224m6.787-7.12h-8.424v9.028h8.425c.415 0 .768-.203 1.05-.603.26-.372.394-.83.394-1.358v-5.172c0-.505-.136-.946-.403-1.31-.284-.39-.635-.586-1.042-.586zm-6.537 2.146h6.087c-.003.03.007.074.007.128v4.48c0 .052-.01.09-.027.117H160.3v-4.725h-.002z"></path>
	</g>
	<path class="inner_1" fill="none" stroke="#F1F1F1" stroke-width="6" stroke-miterlimit="10" d="M58.448 198.968C46.446 182.398 39.37 162.025 39.37 140c0-25.236 9.29-48.3 24.635-65.965" stroke-linejoin="round"></path>

	<path class="inner_2" fill="none" stroke="#F49F29" stroke-width="6" stroke-miterlimit="10" d="M64.005 74.035c11.465-13.197 26.31-23.378 43.19-29.196" stroke-linejoin="round"></path>

	<g class="stripes" fill="none" stroke="#F1F1F1" stroke-width="2" stroke-miterlimit="10" stroke-linejoin="round">
		<line x1="112.355" x2="113.871" y1="39.629" y2="46.323"></line>
		<line x1="125.162" x2="125.613" y1="37.062" y2="43.911"></line>
		<line x1="137.676" x2="137.648" y1="37.055" y2="43.919"></line>
		<line x1="150.487" x2="149.385" y1="38.15" y2="44.925"></line>
		<line x1="163.228" x2="161.194" y1="40.813" y2="47.368"></line>
		<line x1="175.804" x2="173.182" y1="45.428" y2="51.771"></line>
		<line x1="187.747" x2="184.165" y1="50.716" y2="56.571"></line>
		<line x1="197.975" x2="193.993" y1="57.927" y2="63.518"></line>
		<line x1="207.81" x2="203.002" y1="66.209" y2="71.108"></line>
		<line x1="216.683" x2="211.241" y1="75.732" y2="79.914"></line>
		<line x1="224.493" x2="218.693" y1="85.745" y2="89.415"></line>
		<line x1="231.201" x2="224.898" y1="96.953" y2="99.671"></line>
		<line x1="235.399" x2="228.922" y1="108.741" y2="111.013"></line>
		<line x1="238.658" x2="231.906" y1="121.179" y2="122.41"></line>
		<line x1="240.416" x2="233.558" y1="134.076" y2="134.355"></line>
		<line x1="240.954" x2="234.095" y1="147.068" y2="146.807"></line>
		<line x1="240.131" x2="233.397" y1="160.104" y2="158.773"></line>
		<line x1="236.911" x2="230.287" y1="172.197" y2="170.399"></line>
		<line x1="232.549" x2="226.288" y1="184.292" y2="181.48"></line>
		<line x1="226.691" x2="220.882" y1="195.915" y2="192.259"></line>
	</g>

	<defs>
		<filter id="filter-glow" width="5" height="5" x="-1" y="-1">
			<feOffset result="offOut" in="SourceGraphic"></feOffset>
			<feGaussianBlur result="blurOut" in="offOut" stdDeviation="8"></feGaussianBlur>
			<feBlend in="SourceGraphic" in2="blurOut"></feBlend>
		</filter>
		<linearGradient id="grad" x1="0%" y1="0%" y2="100%">
			<stop offset="30%" stop-color="#33B3CC"></stop>
			<stop offset="50%" stop-color="#8EECFE"></stop>
			<stop offset="70%" stop-color="#33B3CC"></stop>
		</linearGradient>
	</defs>
	<ellipse class="glow" cx="140" cy="140" fill="none" stroke="url(#grad)" stroke-width="6" rx="121" ry="121" filter="url(#filter-glow)" data-svg-origin="115 115" style="stroke-dashoffset: -307; stroke-dasharray: 240, 1000; transform-origin: center;"></ellipse>
</svg>
